name rise38.3101peak57.3503fall81.6963.mot
datacolumns 19
datarows 32
range 5.25832100000000 5.30998500000000
endheader
time	ground_force1_vx	ground_force1_vy	ground_force1_vz	ground_force1_px	ground_force1_py	ground_force1_pz	ground_force2_vx	ground_force2_vy	ground_force2_vz	ground_force2_px	ground_force2_py	ground_force2_pz	ground_torque1_x	ground_torque1_y	ground_torque1_z	ground_torque2_x	ground_torque2_y	ground_torque2_z	
5.25832100000000	-8.86919200000000	46.11192000000000	-13.41903800000000	0.34704300000000	0.00000000000000	0.08707700000000	-58.00573400000000	798.56919700000003	-63.28248200000000	0.14343000000000	0.00000000000000	-0.09964800000000	0.00000000000000	-9.18146300000000	0.00000000000000	0.00000000000000	-28.62182600000000	0.00000000000000	
5.25998400000000	-9.58705000000000	52.61452500000000	-14.74842200000000	0.35056000000000	0.00000000000000	0.08826100000000	-58.29150400000000	795.68960300000003	-62.84100300000000	0.14281800000000	0.00000000000000	-0.09955500000000	0.00000000000000	-10.15757600000000	0.00000000000000	0.00000000000000	-28.45765400000000	0.00000000000000	
5.26164900000000	-10.14942300000000	59.03345200000000	-15.90745200000000	0.35385100000000	0.00000000000000	0.08936900000000	-58.57637900000000	792.69191999999998	-62.36650800000000	0.14221500000000	0.00000000000000	-0.09945600000000	0.00000000000000	-11.02866900000000	0.00000000000000	0.00000000000000	-28.28859300000000	0.00000000000000	
5.26331400000000	-10.54213600000000	65.30531400000000	-16.87601400000000	0.35694400000000	0.00000000000000	0.09041000000000	-58.86069500000000	789.57664399999999	-61.85914000000000	0.14162200000000	0.00000000000000	-0.09935300000000	0.00000000000000	-11.77978200000000	0.00000000000000	0.00000000000000	-28.11484600000000	0.00000000000000	
5.26498300000000	-10.75922100000000	71.39278899999999	-17.64495100000000	0.35986300000000	0.00000000000000	0.09139100000000	-59.14477200000000	786.34421499999996	-61.31910100000000	0.14103900000000	0.00000000000000	-0.09924400000000	0.00000000000000	-12.40340000000000	0.00000000000000	0.00000000000000	-27.93662300000000	0.00000000000000	
5.26665000000000	-10.80222800000000	77.28388800000000	-18.21523600000000	0.36262900000000	0.00000000000000	0.09231900000000	-59.42891900000000	782.99500899999998	-60.74665400000000	0.14046600000000	0.00000000000000	-0.09912900000000	0.00000000000000	-12.89900400000000	0.00000000000000	0.00000000000000	-27.75413300000000	0.00000000000000	
5.26831600000000	-10.67904200000000	82.98925500000000	-18.59646900000000	0.36525700000000	0.00000000000000	0.09319900000000	-59.71342600000000	779.52933299999995	-60.14211900000000	0.13990500000000	0.00000000000000	-0.09900900000000	0.00000000000000	-13.27211900000000	0.00000000000000	0.00000000000000	-27.56758900000000	0.00000000000000	
5.26998900000000	-10.40238300000000	88.53807200000000	-18.80491400000000	0.36776300000000	0.00000000000000	0.09403600000000	-59.99856000000000	775.94741299999998	-59.50587600000000	0.13935400000000	0.00000000000000	-0.09888300000000	0.00000000000000	-13.53302200000000	0.00000000000000	0.00000000000000	-27.37720200000000	0.00000000000000	
5.27165200000000	-9.98817900000000	93.97313900000000	-18.86133200000000	0.37015700000000	0.00000000000000	0.09483300000000	-60.28456400000000	772.24939800000004	-58.83836500000000	0.13881600000000	0.00000000000000	-0.09875200000000	0.00000000000000	-13.69528400000000	0.00000000000000	0.00000000000000	-27.18318200000000	0.00000000000000	
5.27332200000000	-9.45395800000000	99.34569700000000	-18.78882400000000	0.37245000000000	0.00000000000000	0.09559300000000	-60.57165200000000	768.43534499999998	-58.14008300000000	0.13829000000000	0.00000000000000	-0.09861400000000	0.00000000000000	-13.77428900000000	0.00000000000000	0.00000000000000	-26.98573800000000	0.00000000000000	
5.27498900000000	-8.81739300000000	104.71044200000000	-18.61084700000000	0.37465000000000	0.00000000000000	0.09632000000000	-60.86000300000000	764.50522400000000	-57.41158700000000	0.13777800000000	0.00000000000000	-0.09847100000000	0.00000000000000	-13.78586200000000	0.00000000000000	0.00000000000000	-26.78507400000000	0.00000000000000	
5.27665300000000	-8.09508600000000	110.12110300000001	-18.34954800000000	0.37676500000000	0.00000000000000	0.09701600000000	-61.14975900000000	760.45890599999996	-56.65348900000000	0.13727800000000	0.00000000000000	-0.09832300000000	0.00000000000000	-13.74508100000000	0.00000000000000	0.00000000000000	-26.58139100000000	0.00000000000000	
5.27832100000000	-7.30165000000000	115.62683600000000	-18.02447600000000	0.37880000000000	0.00000000000000	0.09768400000000	-61.44102200000000	756.29616999999996	-55.86645800000000	0.13679300000000	0.00000000000000	-0.09816800000000	0.00000000000000	-13.66536400000000	0.00000000000000	0.00000000000000	-26.37488400000000	0.00000000000000	
5.27998400000000	-6.44909700000000	121.26956000000000	-17.65172000000000	0.38076000000000	0.00000000000000	0.09832500000000	-61.73384600000000	752.01669100000004	-55.05121900000000	0.13632100000000	0.00000000000000	-0.09800800000000	0.00000000000000	-13.55782000000000	0.00000000000000	0.00000000000000	-26.16574000000000	0.00000000000000	
5.28165000000000	-5.54654400000000	127.08227900000000	-17.24345100000000	0.38264900000000	0.00000000000000	0.09894200000000	-62.02823800000000	747.62004999999999	-54.20855300000000	0.13586400000000	0.00000000000000	-0.09784200000000	0.00000000000000	-13.43090000000000	0.00000000000000	0.00000000000000	-25.95414000000000	0.00000000000000	
5.28331500000000	-4.60018300000000	133.08833899999999	-16.80784400000000	0.38447200000000	0.00000000000000	0.09953500000000	-62.32414800000000	743.10572500000001	-53.33929000000000	0.13542200000000	0.00000000000000	-0.09767000000000	0.00000000000000	-13.29029900000000	0.00000000000000	0.00000000000000	-25.74025600000000	0.00000000000000	
5.28498600000000	-3.61348000000000	139.30150800000001	-16.34930300000000	0.38623100000000	0.00000000000000	0.10010600000000	-62.62147000000000	738.47309900000005	-52.44431700000000	0.13499500000000	0.00000000000000	-0.09749200000000	0.00000000000000	-13.13908800000000	0.00000000000000	0.00000000000000	-25.52424800000000	0.00000000000000	
5.28665000000000	-2.58754600000000	145.72670500000001	-15.86892800000000	0.38792800000000	0.00000000000000	0.10065700000000	-62.92003800000000	733.72145999999998	-51.52456700000000	0.13458300000000	0.00000000000000	-0.09730800000000	0.00000000000000	-12.97800900000000	0.00000000000000	0.00000000000000	-25.30626900000000	0.00000000000000	
5.28832100000000	-1.52161900000000	152.36123599999999	-15.36514700000000	0.38956600000000	0.00000000000000	0.10118900000000	-63.21961800000000	728.85000700000001	-50.58102400000000	0.13418600000000	0.00000000000000	-0.09711900000000	0.00000000000000	-12.80589600000000	0.00000000000000	0.00000000000000	-25.08645500000000	0.00000000000000	
5.28998200000000	-0.41359800000000	159.19631699999999	-14.83441800000000	0.39114700000000	0.00000000000000	0.10170200000000	-63.51991000000000	723.85785399999997	-49.61471800000000	0.13380500000000	0.00000000000000	-0.09692400000000	0.00000000000000	-12.62016300000000	0.00000000000000	0.00000000000000	-24.86493600000000	0.00000000000000	
5.29164700000000	0.73941600000000	166.21873700000000	-14.27195800000000	0.39267000000000	0.00000000000000	0.10219800000000	-63.82054300000000	718.74403500000005	-48.62672400000000	0.13344000000000	0.00000000000000	-0.09672400000000	0.00000000000000	-12.41730000000000	0.00000000000000	0.00000000000000	-24.64182300000000	0.00000000000000	
5.29331800000000	1.94061100000000	173.41250600000001	-13.67242400000000	0.39413900000000	0.00000000000000	0.10267700000000	-64.12107100000000	713.50751900000000	-47.61816000000000	0.13309000000000	0.00000000000000	-0.09651800000000	0.00000000000000	-12.19335900000000	0.00000000000000	0.00000000000000	-24.41721600000000	0.00000000000000	
5.29498800000000	3.19303300000000	180.76036800000000	-13.03051400000000	0.39555200000000	0.00000000000000	0.10314000000000	-64.42097500000000	708.14721399999996	-46.59018200000000	0.13275600000000	0.00000000000000	-0.09630700000000	0.00000000000000	-11.94437600000000	0.00000000000000	0.00000000000000	-24.19120200000000	0.00000000000000	
5.29665000000000	4.49922900000000	188.24509399999999	-12.34145300000000	0.39691200000000	0.00000000000000	0.10358800000000	-64.71965700000000	702.66197999999997	-45.54398800000000	0.13243800000000	0.00000000000000	-0.09609000000000	0.00000000000000	-11.66672400000000	0.00000000000000	0.00000000000000	-23.96385100000000	0.00000000000000	
5.29831900000000	5.86099600000000	195.85050300000000	-11.60135500000000	0.39821800000000	0.00000000000000	0.10402100000000	-65.01644100000000	697.05064100000004	-44.48080800000000	0.13213500000000	0.00000000000000	-0.09586800000000	0.00000000000000	-11.35737200000000	0.00000000000000	0.00000000000000	-23.73521700000000	0.00000000000000	
5.29998400000000	7.27921700000000	203.56219400000001	-10.80745200000000	0.39947200000000	0.00000000000000	0.10444000000000	-65.31057100000000	691.31200200000001	-43.40190600000000	0.13184700000000	0.00000000000000	-0.09564100000000	0.00000000000000	-11.01406500000000	0.00000000000000	0.00000000000000	-23.50534200000000	0.00000000000000	
5.30165300000000	8.75379900000000	211.36797500000000	-9.95821000000000	0.40067200000000	0.00000000000000	0.10484500000000	-65.60121400000000	685.44485799999995	-42.30857500000000	0.13157400000000	0.00000000000000	-0.09540800000000	0.00000000000000	-10.63540700000000	0.00000000000000	0.00000000000000	-23.27425100000000	0.00000000000000	
5.30331700000000	10.28367400000000	219.25804400000001	-9.05332900000000	0.40181900000000	0.00000000000000	0.10523700000000	-65.88745600000000	679.44801399999994	-41.20213600000000	0.13131700000000	0.00000000000000	-0.09517100000000	0.00000000000000	-10.22087400000000	0.00000000000000	0.00000000000000	-23.04195200000000	0.00000000000000	
5.30498200000000	11.86687500000000	227.22493499999999	-8.09366900000000	0.40291300000000	0.00000000000000	0.10561700000000	-66.16830500000000	673.32029399999999	-40.08393200000000	0.13107400000000	0.00000000000000	-0.09492900000000	0.00000000000000	-9.77076600000000	0.00000000000000	0.00000000000000	-22.80844000000000	0.00000000000000	
5.30665000000000	13.50065200000000	235.26329000000001	-7.08110000000000	0.40395500000000	0.00000000000000	0.10598400000000	-66.44269000000000	667.06056500000000	-38.95533000000000	0.13084500000000	0.00000000000000	-0.09468300000000	0.00000000000000	-9.28611200000000	0.00000000000000	0.00000000000000	-22.57369300000000	0.00000000000000	
5.30832100000000	15.18161000000000	243.36951500000001	-6.01832800000000	0.40494300000000	0.00000000000000	0.10633900000000	-66.70946499999999	660.66774299999997	-37.81771100000000	0.13063000000000	0.00000000000000	-0.09443100000000	0.00000000000000	-8.76853800000000	0.00000000000000	0.00000000000000	-22.33767600000000	0.00000000000000	
5.30998500000000	16.90587200000000	251.54135900000000	-4.90868500000000	0.40587900000000	0.00000000000000	0.10668300000000	-66.96740699999999	654.14081199999998	-36.67247600000000	0.13042800000000	0.00000000000000	-0.09417600000000	0.00000000000000	-8.22013700000000	0.00000000000000	0.00000000000000	-22.10033800000000	0.00000000000000	
